<svg xmlns="http://www.w3.org/2000/svg" xmlns:xlink="http://www.w3.org/1999/xlink" width="500" zoomAndPan="magnify" viewBox="0 0 375 374.999991" height="500" preserveAspectRatio="xMidYMid meet" version="1.0"><defs><g/><clipPath id="6e8a8dc003"><path d="M 113 99 L 264 99 L 264 289.964844 L 113 289.964844 Z M 113 99 " clip-rule="nonzero"/></clipPath><clipPath id="5618a48388"><path d="M 64.726562 196.738281 L 310.273438 196.738281 L 310.273438 230.539062 L 64.726562 230.539062 Z M 64.726562 196.738281 " clip-rule="nonzero"/></clipPath></defs><rect x="-37.5" width="450" fill="#ffffff" y="-37.499999" height="449.999989" fill-opacity="1"/><rect x="-37.5" width="450" fill="#333333" y="-37.499999" height="449.999989" fill-opacity="1"/><g clip-path="url(#6e8a8dc003)"><path fill="#efcbc1" d="M 213.625 169.011719 L 223.234375 169.011719 L 223.234375 181.863281 L 213.625 181.863281 Z M 168.707031 171.480469 L 171.023438 184.121094 L 179.324219 182.601562 L 177.007812 169.960938 Z M 261.191406 279.191406 C 258.875 283.132812 254.183594 284.871094 249.949219 285.832031 C 243.96875 287.199219 235.332031 286.644531 229.222656 286.589844 C 223.695312 286.535156 218.179688 286.199219 212.671875 285.8125 C 208.894531 285.546875 204.636719 285.855469 200.847656 285.917969 C 196.859375 285.988281 192.863281 286.609375 188.914062 287.089844 C 183.179688 287.777344 177.449219 288.46875 171.695312 288.957031 C 165.847656 289.449219 159.953125 289.78125 154.082031 289.519531 C 149.460938 289.3125 144.605469 288.839844 140.328125 286.960938 C 139.226562 286.476562 137.910156 285.839844 136.988281 284.949219 C 136.78125 284.855469 136.601562 284.683594 136.46875 284.398438 C 136.453125 284.363281 136.4375 284.335938 136.421875 284.304688 C 135.734375 283.308594 135.25 282.183594 134.507812 281.199219 C 134.207031 280.804688 133.898438 280.429688 133.574219 280.078125 C 133.539062 280.039062 133.5 280 133.460938 279.957031 C 130.566406 276.835938 126.828125 275.398438 122.71875 276.339844 C 122.695312 276.34375 122.671875 276.351562 122.644531 276.355469 C 122.488281 276.390625 122.332031 276.429688 122.175781 276.476562 C 121.980469 276.527344 121.789062 276.589844 121.597656 276.652344 C 121.523438 276.675781 121.453125 276.703125 121.378906 276.730469 C 121.144531 276.808594 120.910156 276.898438 120.675781 276.996094 C 120.167969 277.207031 119.578125 276.84375 119.308594 276.4375 C 117.429688 273.652344 116.253906 270.21875 115.351562 267.015625 C 110.0625 248.257812 115.917969 228.207031 125.167969 211.710938 C 127.339844 207.84375 129.09375 204.179688 130.058594 199.765625 C 132.40625 189.027344 130.859375 177.78125 127.765625 167.367188 C 127.550781 166.628906 128.15625 165.808594 128.933594 165.832031 C 133.945312 165.980469 139.019531 164.511719 143.691406 162.867188 C 143.707031 162.859375 143.726562 162.851562 143.742188 162.84375 C 146.753906 161.765625 149.777344 160.746094 152.820312 159.949219 C 151.699219 152.675781 145.710938 111.125 154.46875 106.464844 C 164.070312 101.359375 186.132812 94.414062 193.488281 103.402344 C 200.402344 111.851562 207.132812 118.324219 207.0625 164.90625 C 209.214844 164.953125 211.328125 164.980469 213.351562 165 C 218.675781 165.050781 224.394531 165.152344 229.558594 163.671875 C 235.96875 161.84375 245.769531 161.351562 252.195312 163.523438 C 252.683594 163.691406 253.117188 164.140625 253.082031 164.691406 C 252.757812 170.359375 252.519531 176.035156 252.328125 181.710938 C 252.035156 190.550781 251.226562 198.8125 251.535156 207.652344 C 251.648438 210.914062 251.765625 214.230469 252.351562 217.449219 C 252.945312 220.667969 254.476562 224.4375 255.332031 227.59375 C 257.871094 236.957031 260.484375 246.328125 262.085938 255.90625 C 263.292969 263.132812 264.894531 272.394531 261.191406 279.191406 Z M 161.085938 158.445312 C 164.636719 158.132812 168.238281 158.292969 171.914062 159.183594 C 175.117188 159.953125 177.039062 161.449219 180.269531 162.140625 C 183.5 162.828125 186.757812 163.359375 190.03125 163.785156 C 191.734375 164.007812 193.511719 164.191406 195.320312 164.335938 C 195.292969 154.359375 195.050781 139.507812 193.886719 132.40625 C 192.050781 121.171875 188.78125 107.167969 181.835938 108.144531 C 174.890625 109.117188 159.976562 109.324219 159.566406 115.453125 C 159.285156 119.726562 160.394531 144.105469 161.085938 158.445312 Z M 135.613281 278.671875 C 134.671875 271.292969 133.945312 263.882812 133.585938 256.453125 C 132.699219 238.023438 134.164062 219.613281 141.667969 202.585938 C 144.832031 195.222656 144.738281 186.464844 144.359375 178.609375 C 144.148438 174.273438 143.773438 169.914062 143.097656 165.617188 C 139.082031 166.972656 134.789062 168.105469 130.53125 168.242188 C 133.539062 178.992188 134.8125 190.542969 132.132812 201.492188 C 131.074219 205.824219 129.195312 209.433594 127.0625 213.269531 C 121.335938 223.574219 116.300781 235.410156 115.285156 247.226562 C 114.671875 254.355469 115.96875 261.160156 118.167969 267.992188 C 118.859375 270.144531 119.679688 272.375 120.847656 274.347656 C 125.609375 272.710938 130.320312 273.832031 133.976562 277.082031 C 134.554688 277.566406 135.101562 278.101562 135.613281 278.671875 Z M 260.839844 266.105469 C 260.589844 260.777344 259.65625 255.5 258.554688 250.289062 C 256.679688 241.386719 254.109375 232.65625 251.824219 223.855469 C 250.140625 217.371094 249.707031 210.933594 249.601562 204.246094 C 249.394531 191.359375 249.871094 178.429688 250.605469 165.5625 C 248.183594 164.863281 242.773438 164.566406 240.277344 164.5 C 237.28125 164.425781 234.296875 164.761719 231.421875 165.613281 C 230.261719 165.957031 229.132812 166.300781 227.941406 166.515625 C 222.160156 167.558594 216.144531 167.519531 210.292969 167.355469 C 203.285156 167.15625 196.277344 166.570312 189.332031 165.597656 C 186.035156 165.136719 182.746094 164.582031 179.503906 163.835938 C 176.234375 163.082031 173.089844 161.824219 169.796875 161.195312 C 161.332031 159.578125 153.296875 162.007812 145.40625 164.804688 C 146.160156 169.527344 146.589844 174.332031 146.800781 179.101562 C 147.164062 187.292969 146.484375 195.722656 143.195312 203.375 C 141.785156 206.566406 141.105469 210.25 140.078125 213.589844 C 133.230469 235.847656 135.441406 260.410156 138.621094 283.097656 C 139.429688 283.976562 140.835938 284.59375 142 285.046875 C 146.503906 286.792969 151.554688 287.082031 156.332031 287.164062 C 162.269531 287.273438 168.214844 286.871094 174.125 286.316406 C 179.601562 285.804688 185.054688 285.128906 190.519531 284.472656 C 194.136719 284.042969 197.804688 283.480469 201.453125 283.496094 C 210.960938 283.535156 220.433594 284.898438 229.957031 284.914062 C 235.339844 284.921875 243.644531 284.730469 248.921875 283.582031 C 252.628906 282.773438 257.054688 281.453125 259.101562 277.964844 C 261.027344 274.433594 261.027344 270.019531 260.839844 266.105469 Z M 260.839844 266.105469 " fill-opacity="1" fill-rule="nonzero"/></g><path fill="#ffffff" d="M 218.363281 174.332031 C 217.824219 173.421875 217.289062 172.515625 216.753906 171.613281 C 217.980469 171.605469 219.207031 171.605469 220.4375 171.601562 C 219.742188 172.511719 219.050781 173.421875 218.363281 174.332031 Z M 173.769531 177.1875 C 173.191406 176.539062 172.613281 175.894531 172.039062 175.242188 C 172.167969 176.804688 172.296875 178.371094 172.425781 179.933594 C 172.871094 179.019531 173.320312 178.105469 173.769531 177.1875 Z M 216.191406 172.6875 C 216.101562 173.484375 216.011719 174.273438 215.925781 175.070312 C 215.835938 175.859375 215.425781 177.207031 215.507812 178.09375 C 216.234375 177.136719 216.960938 176.179688 217.6875 175.222656 C 217.1875 174.375 216.6875 173.53125 216.191406 172.6875 Z M 175.539062 173.578125 C 174.476562 173.789062 173.40625 174 172.339844 174.214844 C 172.960938 174.914062 173.582031 175.605469 174.203125 176.304688 C 174.648438 175.394531 175.09375 174.484375 175.539062 173.578125 Z M 216.070312 179.039062 C 217.023438 179.6875 218.996094 179.765625 220.339844 179.707031 C 219.640625 178.527344 218.945312 177.351562 218.25 176.171875 C 217.523438 177.128906 216.796875 178.085938 216.070312 179.039062 Z M 173.050781 180.734375 C 174.316406 180.964844 175.585938 180.933594 176.84375 180.640625 C 176.035156 179.734375 175.230469 178.832031 174.425781 177.925781 C 173.964844 178.863281 173.511719 179.800781 173.050781 180.734375 Z M 177.011719 179.453125 C 176.722656 177.773438 176.4375 176.09375 176.144531 174.417969 C 175.71875 175.292969 175.289062 176.164062 174.863281 177.039062 C 175.578125 177.847656 176.292969 178.648438 177.011719 179.453125 Z M 224.125 182.257812 C 221.875 185.320312 212.070312 182.464844 212.070312 182.464844 C 212.070312 182.464844 216.972656 115.457031 209.621094 103.609375 C 202.269531 91.761719 181.019531 99.933594 174.890625 103.609375 C 168.761719 107.285156 180.714844 184.199219 180.714844 184.199219 C 176.730469 186.34375 169.070312 184.199219 169.070312 184.199219 C 169.070312 184.199219 164.476562 106.261719 166.515625 97.890625 C 168.558594 89.515625 196.957031 85.222656 212.480469 93.191406 C 228.007812 101.164062 224.125 182.257812 224.125 182.257812 Z M 171.347656 173.480469 C 171.164062 173.515625 170.996094 173.734375 171.011719 173.917969 C 171.207031 176.273438 171.402344 178.628906 171.597656 180.980469 C 171.613281 181.183594 171.726562 181.367188 171.933594 181.421875 C 172.039062 181.449219 172.144531 181.472656 172.25 181.5 C 172.296875 181.519531 172.339844 181.527344 172.386719 181.53125 C 174.207031 181.949219 176.042969 181.882812 177.839844 181.316406 C 178.09375 181.234375 178.203125 181.007812 178.160156 180.753906 C 177.703125 178.109375 177.246094 175.464844 176.796875 172.820312 C 176.753906 172.589844 176.589844 172.492188 176.410156 172.492188 C 176.320312 172.46875 176.222656 172.476562 176.136719 172.519531 C 174.542969 172.84375 172.945312 173.160156 171.347656 173.480469 Z M 221.917969 170.808594 C 221.882812 170.761719 221.84375 170.714844 221.800781 170.683594 C 221.71875 170.613281 221.609375 170.566406 221.472656 170.566406 C 219.601562 170.570312 217.726562 170.574219 215.851562 170.574219 C 215.546875 170.574219 215.367188 170.8125 215.335938 171.089844 C 215.035156 173.738281 214.738281 176.386719 214.441406 179.035156 C 214.421875 179.203125 214.550781 179.40625 214.695312 179.484375 C 216.757812 180.519531 218.953125 180.929688 221.253906 180.675781 C 221.539062 180.644531 221.761719 180.464844 221.773438 180.160156 C 221.84375 177.179688 221.914062 174.203125 221.984375 171.226562 C 222.050781 171.070312 222.015625 170.921875 221.917969 170.808594 Z M 220.777344 178.421875 C 220.824219 176.503906 220.871094 174.582031 220.917969 172.664062 C 220.25 173.539062 219.589844 174.414062 218.921875 175.289062 C 219.542969 176.328125 220.160156 177.378906 220.777344 178.421875 Z M 220.777344 178.421875 " fill-opacity="1" fill-rule="nonzero"/><g clip-path="url(#5618a48388)"><path fill="#e3256b" d="M 64.726562 196.738281 L 310.296875 196.738281 L 310.296875 230.539062 L 64.726562 230.539062 Z M 64.726562 196.738281 " fill-opacity="1" fill-rule="nonzero"/></g><g fill="#f9dec9" fill-opacity="1"><g transform="translate(116.903419, 222.239693)"><g><path d="M 13.234375 0.390625 C 11.890625 0.390625 10.726562 0.0976562 9.75 -0.484375 C 8.769531 -1.078125 8.109375 -1.984375 7.765625 -3.203125 L 7.5 -3.203125 L 7.5 0 L 0.6875 0 L 0.6875 -0.359375 C 1.007812 -0.742188 1.285156 -1.597656 1.515625 -2.921875 C 1.742188 -4.253906 1.859375 -6.03125 1.859375 -8.25 L 1.859375 -12.71875 C 1.859375 -14.957031 1.742188 -16.738281 1.515625 -18.0625 C 1.285156 -19.394531 1.007812 -20.253906 0.6875 -20.640625 L 0.6875 -21 L 13.234375 -21 C 14.929688 -21 16.191406 -20.703125 17.015625 -20.109375 C 17.847656 -19.523438 18.265625 -18.757812 18.265625 -17.8125 C 18.265625 -17.15625 18.035156 -16.601562 17.578125 -16.15625 C 17.117188 -15.707031 16.507812 -15.367188 15.75 -15.140625 C 14.988281 -14.910156 14.160156 -14.796875 13.265625 -14.796875 L 12.5625 -14.796875 L 12.5625 -14.4375 L 13.234375 -14.4375 C 14.828125 -14.4375 16.273438 -14.144531 17.578125 -13.5625 C 18.878906 -12.976562 19.914062 -12.148438 20.6875 -11.078125 C 21.457031 -10.015625 21.84375 -8.742188 21.84375 -7.265625 C 21.84375 -5.878906 21.53125 -4.601562 20.90625 -3.4375 C 20.289062 -2.28125 19.347656 -1.351562 18.078125 -0.65625 C 16.804688 0.0390625 15.191406 0.390625 13.234375 0.390625 Z M 7.53125 -14.96875 L 9.71875 -14.96875 C 10.613281 -14.96875 11.300781 -15.222656 11.78125 -15.734375 C 12.269531 -16.242188 12.515625 -16.867188 12.515625 -17.609375 C 12.515625 -18.304688 12.34375 -18.9375 12 -19.5 C 11.65625 -20.0625 11.101562 -20.34375 10.34375 -20.34375 L 7.53125 -20.34375 Z M 12.328125 -0.265625 C 13.472656 -0.265625 14.445312 -0.769531 15.25 -1.78125 C 16.0625 -2.789062 16.46875 -4.195312 16.46875 -6 C 16.46875 -6.9375 16.332031 -7.890625 16.0625 -8.859375 C 15.789062 -9.828125 15.394531 -10.722656 14.875 -11.546875 C 14.351562 -12.367188 13.71875 -13.03125 12.96875 -13.53125 C 12.21875 -14.03125 11.351562 -14.28125 10.375 -14.28125 L 7.5 -14.28125 L 7.5 -6.390625 L 7.734375 -6.390625 C 7.898438 -7.234375 8.25 -7.910156 8.78125 -8.421875 C 9.320312 -8.929688 9.9375 -9.1875 10.625 -9.1875 C 11.28125 -9.1875 11.816406 -9.019531 12.234375 -8.6875 C 12.660156 -8.351562 12.976562 -7.921875 13.1875 -7.390625 C 13.394531 -6.859375 13.5 -6.296875 13.5 -5.703125 C 13.5 -5.421875 13.453125 -5.070312 13.359375 -4.65625 C 13.273438 -4.25 13.179688 -3.96875 13.078125 -3.8125 L 12.75 -3.8125 C 12.789062 -4.1875 12.75 -4.570312 12.625 -4.96875 C 12.507812 -5.375 12.304688 -5.71875 12.015625 -6 C 11.722656 -6.28125 11.335938 -6.421875 10.859375 -6.421875 C 10.242188 -6.421875 9.75 -6.164062 9.375 -5.65625 C 9 -5.144531 8.8125 -4.445312 8.8125 -3.5625 C 8.8125 -2.707031 9.132812 -1.941406 9.78125 -1.265625 C 10.4375 -0.597656 11.285156 -0.265625 12.328125 -0.265625 Z M 12.328125 -0.265625 "/></g></g></g><g fill="#f9dec9" fill-opacity="1"><g transform="translate(139.283392, 222.239693)"><g><path d="M 6.203125 0.390625 C 4.503906 0.390625 3.132812 -0.0859375 2.09375 -1.046875 C 1.0625 -2.003906 0.546875 -3.273438 0.546875 -4.859375 C 0.546875 -6.441406 1.0625 -7.710938 2.09375 -8.671875 C 3.132812 -9.628906 4.503906 -10.109375 6.203125 -10.109375 C 7.085938 -10.109375 7.914062 -9.921875 8.6875 -9.546875 C 9.457031 -9.179688 10.03125 -8.726562 10.40625 -8.1875 L 10.734375 -8.1875 L 9.953125 -12.71875 C 9.753906 -13.820312 9.363281 -14.675781 8.78125 -15.28125 C 8.207031 -15.894531 7.453125 -16.203125 6.515625 -16.203125 C 5.773438 -16.203125 5.191406 -16.019531 4.765625 -15.65625 C 4.347656 -15.300781 4.140625 -14.832031 4.140625 -14.25 C 4.140625 -13.75 4.296875 -13.351562 4.609375 -13.0625 C 4.929688 -12.769531 5.304688 -12.625 5.734375 -12.625 C 6.191406 -12.625 6.566406 -12.742188 6.859375 -12.984375 C 7.148438 -13.222656 7.242188 -13.535156 7.140625 -13.921875 L 7.46875 -13.984375 C 7.570312 -13.859375 7.640625 -13.707031 7.671875 -13.53125 C 7.710938 -13.351562 7.734375 -13.179688 7.734375 -13.015625 C 7.734375 -12.421875 7.503906 -11.875 7.046875 -11.375 C 6.585938 -10.875 5.945312 -10.625 5.125 -10.625 C 4.3125 -10.625 3.609375 -10.882812 3.015625 -11.40625 C 2.421875 -11.9375 2.125 -12.582031 2.125 -13.34375 C 2.125 -14.03125 2.367188 -14.632812 2.859375 -15.15625 C 3.347656 -15.6875 4.003906 -16.109375 4.828125 -16.421875 C 5.648438 -16.734375 6.570312 -16.890625 7.59375 -16.890625 C 9.726562 -16.890625 11.394531 -16.347656 12.59375 -15.265625 C 13.800781 -14.191406 14.570312 -12.703125 14.90625 -10.796875 L 15.953125 -4.734375 C 16.078125 -4.054688 16.265625 -3.503906 16.515625 -3.078125 C 16.765625 -2.660156 17.109375 -2.453125 17.546875 -2.453125 C 17.847656 -2.453125 18.078125 -2.554688 18.234375 -2.765625 C 18.398438 -2.984375 18.519531 -3.25 18.59375 -3.5625 L 18.90625 -3.5625 C 18.820312 -2.488281 18.515625 -1.5625 17.984375 -0.78125 C 17.453125 0 16.664062 0.390625 15.625 0.390625 C 14.570312 0.390625 13.722656 0.0351562 13.078125 -0.671875 C 12.441406 -1.378906 12.03125 -2.253906 11.84375 -3.296875 L 11.515625 -3.296875 C 11.203125 -2.222656 10.5625 -1.335938 9.59375 -0.640625 C 8.632812 0.046875 7.503906 0.390625 6.203125 0.390625 Z M 8.21875 -1.59375 C 9.101562 -1.59375 9.832031 -1.925781 10.40625 -2.59375 C 10.988281 -3.257812 11.28125 -4.101562 11.28125 -5.125 C 11.28125 -6.125 10.988281 -6.957031 10.40625 -7.625 C 9.832031 -8.300781 9.101562 -8.640625 8.21875 -8.640625 C 7.300781 -8.640625 6.5625 -8.316406 6 -7.671875 C 5.4375 -7.035156 5.15625 -6.1875 5.15625 -5.125 C 5.15625 -4.082031 5.4375 -3.234375 6 -2.578125 C 6.5625 -1.921875 7.300781 -1.59375 8.21875 -1.59375 Z M 8.21875 -1.59375 "/></g></g></g><g fill="#f9dec9" fill-opacity="1"><g transform="translate(158.003373, 222.239693)"><g><path d="M 9.71875 12.265625 C 8.5625 12.265625 7.503906 12.007812 6.546875 11.5 C 5.597656 10.988281 4.84375 10.304688 4.28125 9.453125 C 3.726562 8.609375 3.453125 7.6875 3.453125 6.6875 C 3.453125 5.664062 3.691406 4.78125 4.171875 4.03125 C 4.648438 3.28125 5.257812 2.703125 6 2.296875 C 6.738281 1.890625 7.488281 1.6875 8.25 1.6875 C 9.125 1.6875 9.875 1.925781 10.5 2.40625 C 11.125 2.882812 11.4375 3.492188 11.4375 4.234375 C 11.4375 4.753906 11.238281 5.226562 10.84375 5.65625 C 10.457031 6.082031 9.941406 6.296875 9.296875 6.296875 C 9.097656 6.296875 8.882812 6.25 8.65625 6.15625 C 8.425781 6.070312 8.28125 6 8.21875 5.9375 L 8.21875 5.640625 C 8.71875 5.703125 9.117188 5.570312 9.421875 5.25 C 9.722656 4.925781 9.875 4.535156 9.875 4.078125 C 9.875 3.597656 9.703125 3.175781 9.359375 2.8125 C 9.015625 2.457031 8.578125 2.28125 8.046875 2.28125 C 7.421875 2.28125 6.910156 2.535156 6.515625 3.046875 C 6.128906 3.554688 5.9375 4.179688 5.9375 4.921875 C 5.9375 5.460938 6.097656 5.972656 6.421875 6.453125 C 6.742188 6.929688 7.171875 7.316406 7.703125 7.609375 C 8.242188 7.910156 8.835938 8.0625 9.484375 8.0625 C 10.203125 8.0625 10.84375 7.890625 11.40625 7.546875 C 11.976562 7.210938 12.429688 6.753906 12.765625 6.171875 C 13.097656 5.597656 13.265625 4.960938 13.265625 4.265625 C 13.265625 3.046875 12.828125 2.046875 11.953125 1.265625 C 11.085938 0.484375 9.875 0.09375 8.3125 0.09375 C 7.40625 0.09375 6.582031 0.25 5.84375 0.5625 C 5.101562 0.882812 4.535156 1.25 4.140625 1.65625 C 3.941406 2.15625 3.675781 2.523438 3.34375 2.765625 C 3.007812 3.003906 2.664062 3.125 2.3125 3.125 C 1.96875 3.125 1.695312 3.015625 1.5 2.796875 C 1.300781 2.585938 1.203125 2.34375 1.203125 2.0625 C 1.203125 1.769531 1.40625 1.460938 1.8125 1.140625 C 2.226562 0.816406 2.8125 0.644531 3.5625 0.625 L 5.90625 -2.09375 C 4.3125 -2.613281 3.019531 -3.5 2.03125 -4.75 C 1.039062 -6 0.546875 -7.492188 0.546875 -9.234375 C 0.546875 -10.773438 0.921875 -12.117188 1.671875 -13.265625 C 2.421875 -14.421875 3.445312 -15.3125 4.75 -15.9375 C 6.0625 -16.570312 7.554688 -16.890625 9.234375 -16.890625 C 10.179688 -16.890625 11.070312 -16.785156 11.90625 -16.578125 C 12.75 -16.367188 13.507812 -16.0625 14.1875 -15.65625 C 14.945312 -15.820312 15.566406 -16.132812 16.046875 -16.59375 C 16.523438 -17.050781 16.765625 -17.597656 16.765625 -18.234375 C 16.765625 -18.816406 16.597656 -19.285156 16.265625 -19.640625 C 15.941406 -20.003906 15.488281 -20.1875 14.90625 -20.1875 C 14.425781 -20.1875 14.019531 -20.035156 13.6875 -19.734375 C 13.363281 -19.441406 13.203125 -19.082031 13.203125 -18.65625 C 13.203125 -18.21875 13.34375 -17.878906 13.625 -17.640625 C 13.914062 -17.398438 14.253906 -17.320312 14.640625 -17.40625 L 14.671875 -17.125 C 14.523438 -17.050781 14.363281 -16.992188 14.1875 -16.953125 C 14.007812 -16.910156 13.820312 -16.890625 13.625 -16.890625 C 13.164062 -16.890625 12.722656 -17.023438 12.296875 -17.296875 C 11.878906 -17.566406 11.539062 -17.925781 11.28125 -18.375 C 11.019531 -18.820312 10.890625 -19.296875 10.890625 -19.796875 C 10.890625 -20.859375 11.234375 -21.710938 11.921875 -22.359375 C 12.609375 -23.015625 13.460938 -23.34375 14.484375 -23.34375 C 15.585938 -23.34375 16.507812 -22.984375 17.25 -22.265625 C 17.988281 -21.546875 18.359375 -20.625 18.359375 -19.5 C 18.359375 -18.5 18.082031 -17.640625 17.53125 -16.921875 C 16.976562 -16.203125 16.234375 -15.640625 15.296875 -15.234375 L 15.296875 -14.9375 C 16.117188 -14.28125 16.769531 -13.46875 17.25 -12.5 C 17.726562 -11.539062 17.96875 -10.453125 17.96875 -9.234375 C 17.96875 -7.703125 17.59375 -6.359375 16.84375 -5.203125 C 16.09375 -4.054688 15.0625 -3.164062 13.75 -2.53125 C 12.445312 -1.90625 10.941406 -1.59375 9.234375 -1.59375 C 8.773438 -1.59375 8.320312 -1.613281 7.875 -1.65625 C 7.425781 -1.707031 7 -1.785156 6.59375 -1.890625 L 4.5625 0.421875 L 4.734375 0.59375 C 5.160156 0.28125 5.6875 0 6.3125 -0.25 C 6.945312 -0.5 7.632812 -0.625 8.375 -0.625 C 10.769531 -0.601562 12.664062 -0.00390625 14.0625 1.171875 C 15.46875 2.347656 16.171875 3.945312 16.171875 5.96875 C 16.171875 7.1875 15.875 8.269531 15.28125 9.21875 C 14.695312 10.175781 13.914062 10.921875 12.9375 11.453125 C 11.96875 11.992188 10.894531 12.265625 9.71875 12.265625 Z M 9.234375 -2.25 C 10.398438 -2.25 11.351562 -2.835938 12.09375 -4.015625 C 12.832031 -5.203125 13.203125 -6.929688 13.203125 -9.203125 C 13.203125 -11.484375 12.832031 -13.210938 12.09375 -14.390625 C 11.351562 -15.578125 10.398438 -16.171875 9.234375 -16.171875 C 8.078125 -16.171875 7.128906 -15.578125 6.390625 -14.390625 C 5.648438 -13.210938 5.28125 -11.484375 5.28125 -9.203125 C 5.28125 -6.929688 5.648438 -5.203125 6.390625 -4.015625 C 7.128906 -2.835938 8.078125 -2.25 9.234375 -2.25 Z M 9.234375 -2.25 "/></g></g></g><g fill="#f9dec9" fill-opacity="1"><g transform="translate(176.633357, 222.239693)"><g/></g></g><g fill="#f9dec9" fill-opacity="1"><g transform="translate(185.453352, 222.239693)"><g><path d="M 13.234375 0.390625 C 11.890625 0.390625 10.726562 0.0976562 9.75 -0.484375 C 8.769531 -1.078125 8.109375 -1.984375 7.765625 -3.203125 L 7.5 -3.203125 L 7.5 0 L 0.6875 0 L 0.6875 -0.359375 C 1.007812 -0.742188 1.285156 -1.597656 1.515625 -2.921875 C 1.742188 -4.253906 1.859375 -6.03125 1.859375 -8.25 L 1.859375 -12.71875 C 1.859375 -14.957031 1.742188 -16.738281 1.515625 -18.0625 C 1.285156 -19.394531 1.007812 -20.253906 0.6875 -20.640625 L 0.6875 -21 L 13.234375 -21 C 14.929688 -21 16.191406 -20.703125 17.015625 -20.109375 C 17.847656 -19.523438 18.265625 -18.757812 18.265625 -17.8125 C 18.265625 -17.15625 18.035156 -16.601562 17.578125 -16.15625 C 17.117188 -15.707031 16.507812 -15.367188 15.75 -15.140625 C 14.988281 -14.910156 14.160156 -14.796875 13.265625 -14.796875 L 12.5625 -14.796875 L 12.5625 -14.4375 L 13.234375 -14.4375 C 14.828125 -14.4375 16.273438 -14.144531 17.578125 -13.5625 C 18.878906 -12.976562 19.914062 -12.148438 20.6875 -11.078125 C 21.457031 -10.015625 21.84375 -8.742188 21.84375 -7.265625 C 21.84375 -5.878906 21.53125 -4.601562 20.90625 -3.4375 C 20.289062 -2.28125 19.347656 -1.351562 18.078125 -0.65625 C 16.804688 0.0390625 15.191406 0.390625 13.234375 0.390625 Z M 7.53125 -14.96875 L 9.71875 -14.96875 C 10.613281 -14.96875 11.300781 -15.222656 11.78125 -15.734375 C 12.269531 -16.242188 12.515625 -16.867188 12.515625 -17.609375 C 12.515625 -18.304688 12.34375 -18.9375 12 -19.5 C 11.65625 -20.0625 11.101562 -20.34375 10.34375 -20.34375 L 7.53125 -20.34375 Z M 12.328125 -0.265625 C 13.472656 -0.265625 14.445312 -0.769531 15.25 -1.78125 C 16.0625 -2.789062 16.46875 -4.195312 16.46875 -6 C 16.46875 -6.9375 16.332031 -7.890625 16.0625 -8.859375 C 15.789062 -9.828125 15.394531 -10.722656 14.875 -11.546875 C 14.351562 -12.367188 13.71875 -13.03125 12.96875 -13.53125 C 12.21875 -14.03125 11.351562 -14.28125 10.375 -14.28125 L 7.5 -14.28125 L 7.5 -6.390625 L 7.734375 -6.390625 C 7.898438 -7.234375 8.25 -7.910156 8.78125 -8.421875 C 9.320312 -8.929688 9.9375 -9.1875 10.625 -9.1875 C 11.28125 -9.1875 11.816406 -9.019531 12.234375 -8.6875 C 12.660156 -8.351562 12.976562 -7.921875 13.1875 -7.390625 C 13.394531 -6.859375 13.5 -6.296875 13.5 -5.703125 C 13.5 -5.421875 13.453125 -5.070312 13.359375 -4.65625 C 13.273438 -4.25 13.179688 -3.96875 13.078125 -3.8125 L 12.75 -3.8125 C 12.789062 -4.1875 12.75 -4.570312 12.625 -4.96875 C 12.507812 -5.375 12.304688 -5.71875 12.015625 -6 C 11.722656 -6.28125 11.335938 -6.421875 10.859375 -6.421875 C 10.242188 -6.421875 9.75 -6.164062 9.375 -5.65625 C 9 -5.144531 8.8125 -4.445312 8.8125 -3.5625 C 8.8125 -2.707031 9.132812 -1.941406 9.78125 -1.265625 C 10.4375 -0.597656 11.285156 -0.265625 12.328125 -0.265625 Z M 12.328125 -0.265625 "/></g></g></g><g fill="#f9dec9" fill-opacity="1"><g transform="translate(207.833326, 222.239693)"><g><path d="M 5.734375 0.390625 C 4.453125 0.390625 3.457031 -0.0195312 2.75 -0.84375 C 2.050781 -1.675781 1.703125 -2.722656 1.703125 -3.984375 L 1.703125 -15.625 C 1.703125 -16.769531 1.648438 -17.679688 1.546875 -18.359375 C 1.453125 -19.035156 1.328125 -19.550781 1.171875 -19.90625 C 1.023438 -20.269531 0.863281 -20.535156 0.6875 -20.703125 L 0.6875 -21 C 1.625 -21.039062 2.59375 -21.175781 3.59375 -21.40625 C 4.59375 -21.632812 5.425781 -21.96875 6.09375 -22.40625 L 6.390625 -22.40625 L 6.390625 -4.828125 C 6.410156 -4.128906 6.535156 -3.554688 6.765625 -3.109375 C 6.992188 -2.671875 7.328125 -2.453125 7.765625 -2.453125 C 8.066406 -2.453125 8.3125 -2.5625 8.5 -2.78125 C 8.695312 -3.007812 8.820312 -3.28125 8.875 -3.59375 L 9.1875 -3.546875 C 9.0625 -2.441406 8.734375 -1.507812 8.203125 -0.75 C 7.671875 0.0078125 6.847656 0.390625 5.734375 0.390625 Z M 5.734375 0.390625 "/></g></g></g><g fill="#f9dec9" fill-opacity="1"><g transform="translate(217.283318, 222.239693)"><g><path d="M 3.984375 -18.234375 C 3.242188 -18.234375 2.601562 -18.484375 2.0625 -18.984375 C 1.53125 -19.484375 1.265625 -20.09375 1.265625 -20.8125 C 1.265625 -21.539062 1.53125 -22.15625 2.0625 -22.65625 C 2.601562 -23.15625 3.242188 -23.40625 3.984375 -23.40625 C 4.742188 -23.40625 5.390625 -23.15625 5.921875 -22.65625 C 6.453125 -22.15625 6.71875 -21.539062 6.71875 -20.8125 C 6.71875 -20.09375 6.453125 -19.484375 5.921875 -18.984375 C 5.390625 -18.484375 4.742188 -18.234375 3.984375 -18.234375 Z M 0.875 0 L 0.875 -0.328125 C 1.15625 -0.710938 1.382812 -1.550781 1.5625 -2.84375 C 1.738281 -4.144531 1.828125 -5.882812 1.828125 -8.0625 L 1.828125 -10.890625 C 1.804688 -12.304688 1.691406 -13.328125 1.484375 -13.953125 C 1.273438 -14.585938 1.0625 -15.015625 0.84375 -15.234375 L 0.84375 -15.546875 C 1.757812 -15.578125 2.726562 -15.707031 3.75 -15.9375 C 4.769531 -16.175781 5.597656 -16.515625 6.234375 -16.953125 L 6.5625 -16.953125 L 6.5625 -8.0625 C 6.5625 -5.882812 6.648438 -4.144531 6.828125 -2.84375 C 7.015625 -1.550781 7.25 -0.710938 7.53125 -0.328125 L 7.53125 0 Z M 0.875 0 "/></g></g></g><g fill="#f9dec9" fill-opacity="1"><g transform="translate(225.503311, 222.239693)"><g><path d="M 8.15625 0.390625 C 5.613281 0.390625 3.679688 -0.00390625 2.359375 -0.796875 C 1.046875 -1.585938 0.390625 -2.613281 0.390625 -3.875 C 0.390625 -4.914062 0.75 -5.742188 1.46875 -6.359375 C 2.1875 -6.984375 3.066406 -7.296875 4.109375 -7.296875 C 5.085938 -7.296875 5.894531 -7.007812 6.53125 -6.4375 C 7.175781 -5.863281 7.5 -5.21875 7.5 -4.5 C 7.5 -4.101562 7.410156 -3.765625 7.234375 -3.484375 L 6.90625 -3.484375 C 6.9375 -3.878906 6.789062 -4.21875 6.46875 -4.5 C 6.15625 -4.78125 5.738281 -4.921875 5.21875 -4.921875 C 4.65625 -4.921875 4.195312 -4.734375 3.84375 -4.359375 C 3.5 -3.992188 3.328125 -3.519531 3.328125 -2.9375 C 3.328125 -2.195312 3.664062 -1.554688 4.34375 -1.015625 C 5.03125 -0.472656 6.003906 -0.203125 7.265625 -0.203125 C 7.898438 -0.203125 8.519531 -0.335938 9.125 -0.609375 C 9.738281 -0.878906 10.238281 -1.269531 10.625 -1.78125 C 11.019531 -2.289062 11.21875 -2.894531 11.21875 -3.59375 C 11.21875 -4.4375 10.984375 -5.132812 10.515625 -5.6875 C 10.046875 -6.238281 9.441406 -6.695312 8.703125 -7.0625 C 7.960938 -7.4375 7.171875 -7.78125 6.328125 -8.09375 C 5.484375 -8.414062 4.691406 -8.757812 3.953125 -9.125 C 3.210938 -9.5 2.609375 -9.957031 2.140625 -10.5 C 1.671875 -11.039062 1.4375 -11.722656 1.4375 -12.546875 C 1.4375 -13.578125 1.75 -14.410156 2.375 -15.046875 C 3.007812 -15.691406 3.835938 -16.160156 4.859375 -16.453125 C 5.878906 -16.742188 6.957031 -16.890625 8.09375 -16.890625 C 9.5 -16.890625 10.78125 -16.757812 11.9375 -16.5 C 13.101562 -16.238281 13.992188 -15.976562 14.609375 -15.71875 L 14.09375 -12.234375 L 13.828125 -12.234375 C 13.671875 -12.898438 13.378906 -13.535156 12.953125 -14.140625 C 12.535156 -14.753906 12.015625 -15.253906 11.390625 -15.640625 C 10.773438 -16.035156 10.066406 -16.234375 9.265625 -16.234375 C 8.046875 -16.234375 7.148438 -16.015625 6.578125 -15.578125 C 6.015625 -15.148438 5.734375 -14.597656 5.734375 -13.921875 C 5.734375 -13.335938 5.976562 -12.835938 6.46875 -12.421875 C 6.957031 -12.003906 7.585938 -11.617188 8.359375 -11.265625 C 9.128906 -10.910156 9.945312 -10.550781 10.8125 -10.1875 C 11.6875 -9.832031 12.507812 -9.414062 13.28125 -8.9375 C 14.050781 -8.457031 14.679688 -7.878906 15.171875 -7.203125 C 15.660156 -6.523438 15.90625 -5.691406 15.90625 -4.703125 C 15.90625 -3.566406 15.550781 -2.617188 14.84375 -1.859375 C 14.144531 -1.097656 13.210938 -0.53125 12.046875 -0.15625 C 10.878906 0.207031 9.582031 0.390625 8.15625 0.390625 Z M 8.15625 0.390625 "/></g></g></g><g fill="#f9dec9" fill-opacity="1"><g transform="translate(241.7933, 222.239693)"><g><path d="M 8.15625 0.390625 C 5.613281 0.390625 3.679688 -0.00390625 2.359375 -0.796875 C 1.046875 -1.585938 0.390625 -2.613281 0.390625 -3.875 C 0.390625 -4.914062 0.75 -5.742188 1.46875 -6.359375 C 2.1875 -6.984375 3.066406 -7.296875 4.109375 -7.296875 C 5.085938 -7.296875 5.894531 -7.007812 6.53125 -6.4375 C 7.175781 -5.863281 7.5 -5.21875 7.5 -4.5 C 7.5 -4.101562 7.410156 -3.765625 7.234375 -3.484375 L 6.90625 -3.484375 C 6.9375 -3.878906 6.789062 -4.21875 6.46875 -4.5 C 6.15625 -4.78125 5.738281 -4.921875 5.21875 -4.921875 C 4.65625 -4.921875 4.195312 -4.734375 3.84375 -4.359375 C 3.5 -3.992188 3.328125 -3.519531 3.328125 -2.9375 C 3.328125 -2.195312 3.664062 -1.554688 4.34375 -1.015625 C 5.03125 -0.472656 6.003906 -0.203125 7.265625 -0.203125 C 7.898438 -0.203125 8.519531 -0.335938 9.125 -0.609375 C 9.738281 -0.878906 10.238281 -1.269531 10.625 -1.78125 C 11.019531 -2.289062 11.21875 -2.894531 11.21875 -3.59375 C 11.21875 -4.4375 10.984375 -5.132812 10.515625 -5.6875 C 10.046875 -6.238281 9.441406 -6.695312 8.703125 -7.0625 C 7.960938 -7.4375 7.171875 -7.78125 6.328125 -8.09375 C 5.484375 -8.414062 4.691406 -8.757812 3.953125 -9.125 C 3.210938 -9.5 2.609375 -9.957031 2.140625 -10.5 C 1.671875 -11.039062 1.4375 -11.722656 1.4375 -12.546875 C 1.4375 -13.578125 1.75 -14.410156 2.375 -15.046875 C 3.007812 -15.691406 3.835938 -16.160156 4.859375 -16.453125 C 5.878906 -16.742188 6.957031 -16.890625 8.09375 -16.890625 C 9.5 -16.890625 10.78125 -16.757812 11.9375 -16.5 C 13.101562 -16.238281 13.992188 -15.976562 14.609375 -15.71875 L 14.09375 -12.234375 L 13.828125 -12.234375 C 13.671875 -12.898438 13.378906 -13.535156 12.953125 -14.140625 C 12.535156 -14.753906 12.015625 -15.253906 11.390625 -15.640625 C 10.773438 -16.035156 10.066406 -16.234375 9.265625 -16.234375 C 8.046875 -16.234375 7.148438 -16.015625 6.578125 -15.578125 C 6.015625 -15.148438 5.734375 -14.597656 5.734375 -13.921875 C 5.734375 -13.335938 5.976562 -12.835938 6.46875 -12.421875 C 6.957031 -12.003906 7.585938 -11.617188 8.359375 -11.265625 C 9.128906 -10.910156 9.945312 -10.550781 10.8125 -10.1875 C 11.6875 -9.832031 12.507812 -9.414062 13.28125 -8.9375 C 14.050781 -8.457031 14.679688 -7.878906 15.171875 -7.203125 C 15.660156 -6.523438 15.90625 -5.691406 15.90625 -4.703125 C 15.90625 -3.566406 15.550781 -2.617188 14.84375 -1.859375 C 14.144531 -1.097656 13.210938 -0.53125 12.046875 -0.15625 C 10.878906 0.207031 9.582031 0.390625 8.15625 0.390625 Z M 8.15625 0.390625 "/></g></g></g><g fill="#ffffff" fill-opacity="1"><g transform="translate(163.030688, 257.229622)"><g><path d="M 1.375 0 L 1.375 -6.296875 L 6.140625 -6.296875 L 6.140625 -5.359375 L 2.34375 -5.359375 L 2.34375 -3.5625 L 5.734375 -3.5625 L 5.734375 -2.625 L 2.34375 -2.625 L 2.34375 0 Z M 1.375 0 "/></g></g></g><g fill="#ffffff" fill-opacity="1"><g transform="translate(170.140741, 257.229622)"><g><path d="M 7.140625 -6.3125 L 7.140625 -2.796875 C 7.140625 -2.253906 7.015625 -1.765625 6.765625 -1.328125 C 6.523438 -0.898438 6.179688 -0.5625 5.734375 -0.3125 C 5.296875 -0.0703125 4.785156 0.046875 4.203125 0.046875 C 3.617188 0.046875 3.101562 -0.0703125 2.65625 -0.3125 C 2.21875 -0.5625 1.875 -0.898438 1.625 -1.328125 C 1.382812 -1.765625 1.265625 -2.253906 1.265625 -2.796875 L 1.265625 -6.3125 L 2.234375 -6.3125 L 2.234375 -2.859375 C 2.234375 -2.472656 2.320312 -2.128906 2.5 -1.828125 C 2.675781 -1.535156 2.910156 -1.304688 3.203125 -1.140625 C 3.503906 -0.972656 3.835938 -0.890625 4.203125 -0.890625 C 4.585938 -0.890625 4.929688 -0.972656 5.234375 -1.140625 C 5.535156 -1.304688 5.773438 -1.535156 5.953125 -1.828125 C 6.128906 -2.128906 6.21875 -2.472656 6.21875 -2.859375 L 6.21875 -6.3125 Z M 7.140625 -6.3125 "/></g></g></g><g fill="#ffffff" fill-opacity="1"><g transform="translate(178.555799, 257.229622)"><g><path d="M 6.6875 -6.296875 L 7.65625 -6.296875 L 7.65625 0 L 6.71875 0 L 2.171875 -4.90625 C 2.210938 -4.519531 2.25 -4.132812 2.28125 -3.75 C 2.320312 -3.375 2.34375 -3 2.34375 -2.625 L 2.34375 0 L 1.375 0 L 1.375 -6.296875 L 2.296875 -6.296875 L 6.84375 -1.265625 C 6.800781 -1.566406 6.769531 -1.882812 6.75 -2.21875 C 6.726562 -2.5625 6.710938 -2.90625 6.703125 -3.25 C 6.691406 -3.59375 6.6875 -3.921875 6.6875 -4.234375 Z M 6.6875 -6.296875 "/></g></g></g><g fill="#ffffff" fill-opacity="1"><g transform="translate(187.582863, 257.229622)"><g><path d="M 6.9375 -0.875 C 6.78125 -0.738281 6.566406 -0.59375 6.296875 -0.4375 C 6.035156 -0.289062 5.734375 -0.164062 5.390625 -0.0625 C 5.046875 0.0390625 4.679688 0.09375 4.296875 0.09375 C 3.816406 0.09375 3.367188 0.015625 2.953125 -0.140625 C 2.546875 -0.296875 2.1875 -0.515625 1.875 -0.796875 C 1.5625 -1.078125 1.316406 -1.414062 1.140625 -1.8125 C 0.972656 -2.207031 0.890625 -2.65625 0.890625 -3.15625 C 0.890625 -3.613281 0.976562 -4.035156 1.15625 -4.421875 C 1.34375 -4.816406 1.59375 -5.15625 1.90625 -5.4375 C 2.226562 -5.726562 2.597656 -5.953125 3.015625 -6.109375 C 3.429688 -6.273438 3.867188 -6.359375 4.328125 -6.359375 C 4.710938 -6.359375 5.078125 -6.300781 5.421875 -6.1875 C 5.765625 -6.082031 6.070312 -5.945312 6.34375 -5.78125 C 6.625 -5.625 6.847656 -5.460938 7.015625 -5.296875 L 6.40625 -4.515625 C 6.113281 -4.765625 5.789062 -4.972656 5.4375 -5.140625 C 5.09375 -5.304688 4.707031 -5.390625 4.28125 -5.390625 C 3.96875 -5.390625 3.671875 -5.335938 3.390625 -5.234375 C 3.109375 -5.128906 2.851562 -4.976562 2.625 -4.78125 C 2.394531 -4.59375 2.210938 -4.359375 2.078125 -4.078125 C 1.941406 -3.804688 1.875 -3.5 1.875 -3.15625 C 1.875 -2.644531 1.992188 -2.21875 2.234375 -1.875 C 2.472656 -1.539062 2.785156 -1.285156 3.171875 -1.109375 C 3.554688 -0.941406 3.96875 -0.859375 4.40625 -0.859375 C 4.71875 -0.859375 5 -0.898438 5.25 -0.984375 C 5.507812 -1.066406 5.738281 -1.171875 5.9375 -1.296875 C 6.132812 -1.429688 6.3125 -1.5625 6.46875 -1.6875 Z M 6.9375 -0.875 "/></g></g></g><g fill="#ffffff" fill-opacity="1"><g transform="translate(195.430923, 257.229622)"><g><path d="M 2.859375 0 L 2.859375 -5.359375 L 0.6875 -5.359375 L 0.6875 -6.296875 L 6.046875 -6.296875 L 6.046875 -5.359375 L 3.828125 -5.359375 L 3.828125 0 Z M 2.859375 0 "/></g></g></g><g fill="#ffffff" fill-opacity="1"><g transform="translate(202.171974, 257.229622)"><g><path d="M 5.140625 0 L 1.328125 0 L 1.328125 -0.9375 L 2.75 -0.9375 L 2.75 -5.359375 L 1.328125 -5.359375 L 1.328125 -6.296875 L 5.140625 -6.296875 L 5.140625 -5.359375 L 3.71875 -5.359375 L 3.71875 -0.9375 L 5.140625 -0.9375 Z M 5.140625 0 "/></g></g></g><g fill="#ffffff" fill-opacity="1"><g transform="translate(208.643024, 257.229622)"><g><path d="M 7.984375 -3.15625 C 7.984375 -2.695312 7.894531 -2.269531 7.71875 -1.875 C 7.550781 -1.476562 7.304688 -1.132812 6.984375 -0.84375 C 6.671875 -0.550781 6.296875 -0.320312 5.859375 -0.15625 C 5.429688 0.0078125 4.957031 0.09375 4.4375 0.09375 C 3.914062 0.09375 3.4375 0.0078125 3 -0.15625 C 2.570312 -0.320312 2.195312 -0.550781 1.875 -0.84375 C 1.5625 -1.132812 1.316406 -1.476562 1.140625 -1.875 C 0.972656 -2.269531 0.890625 -2.695312 0.890625 -3.15625 C 0.890625 -3.601562 0.972656 -4.023438 1.140625 -4.421875 C 1.316406 -4.816406 1.5625 -5.160156 1.875 -5.453125 C 2.195312 -5.742188 2.570312 -5.972656 3 -6.140625 C 3.4375 -6.304688 3.914062 -6.390625 4.4375 -6.390625 C 4.957031 -6.390625 5.429688 -6.304688 5.859375 -6.140625 C 6.296875 -5.972656 6.671875 -5.742188 6.984375 -5.453125 C 7.304688 -5.160156 7.550781 -4.816406 7.71875 -4.421875 C 7.894531 -4.023438 7.984375 -3.601562 7.984375 -3.15625 Z M 7 -3.15625 C 7 -3.59375 6.890625 -3.984375 6.671875 -4.328125 C 6.453125 -4.671875 6.148438 -4.941406 5.765625 -5.140625 C 5.378906 -5.335938 4.9375 -5.4375 4.4375 -5.4375 C 3.9375 -5.4375 3.492188 -5.335938 3.109375 -5.140625 C 2.722656 -4.941406 2.421875 -4.671875 2.203125 -4.328125 C 1.984375 -3.984375 1.875 -3.59375 1.875 -3.15625 C 1.875 -2.71875 1.984375 -2.320312 2.203125 -1.96875 C 2.421875 -1.625 2.722656 -1.351562 3.109375 -1.15625 C 3.492188 -0.957031 3.9375 -0.859375 4.4375 -0.859375 C 4.9375 -0.859375 5.378906 -0.957031 5.765625 -1.15625 C 6.148438 -1.351562 6.453125 -1.625 6.671875 -1.96875 C 6.890625 -2.320312 7 -2.71875 7 -3.15625 Z M 7 -3.15625 "/></g></g></g><g fill="#ffffff" fill-opacity="1"><g transform="translate(217.526087, 257.229622)"><g><path d="M 6.6875 -6.296875 L 7.65625 -6.296875 L 7.65625 0 L 6.71875 0 L 2.171875 -4.90625 C 2.210938 -4.519531 2.25 -4.132812 2.28125 -3.75 C 2.320312 -3.375 2.34375 -3 2.34375 -2.625 L 2.34375 0 L 1.375 0 L 1.375 -6.296875 L 2.296875 -6.296875 L 6.84375 -1.265625 C 6.800781 -1.566406 6.769531 -1.882812 6.75 -2.21875 C 6.726562 -2.5625 6.710938 -2.90625 6.703125 -3.25 C 6.691406 -3.59375 6.6875 -3.921875 6.6875 -4.234375 Z M 6.6875 -6.296875 "/></g></g></g><g fill="#ffffff" fill-opacity="1"><g transform="translate(226.553152, 257.229622)"><g><path d="M 6.3125 0 L 5.640625 -1.515625 L 2.296875 -1.515625 L 1.625 0 L 0.609375 0 L 3.453125 -6.296875 L 4.546875 -6.296875 L 7.375 0 Z M 3.484375 -4.109375 L 2.734375 -2.453125 L 5.21875 -2.453125 L 4.4375 -4.140625 C 4.351562 -4.328125 4.273438 -4.515625 4.203125 -4.703125 C 4.128906 -4.890625 4.050781 -5.085938 3.96875 -5.296875 C 3.882812 -5.085938 3.800781 -4.882812 3.71875 -4.6875 C 3.644531 -4.488281 3.566406 -4.296875 3.484375 -4.109375 Z M 3.484375 -4.109375 "/></g></g></g><g fill="#ffffff" fill-opacity="1"><g transform="translate(234.536206, 257.229622)"><g><path d="M 6.09375 -0.9375 L 6.09375 0 L 1.375 0 L 1.375 -6.296875 L 2.34375 -6.296875 L 2.34375 -0.9375 Z M 6.09375 -0.9375 "/></g></g></g><g fill="#ffffff" fill-opacity="1"><g transform="translate(179.753343, 266.229621)"><g><path d="M 6.9375 -0.875 C 6.78125 -0.738281 6.566406 -0.59375 6.296875 -0.4375 C 6.035156 -0.289062 5.734375 -0.164062 5.390625 -0.0625 C 5.046875 0.0390625 4.679688 0.09375 4.296875 0.09375 C 3.816406 0.09375 3.367188 0.015625 2.953125 -0.140625 C 2.546875 -0.296875 2.1875 -0.515625 1.875 -0.796875 C 1.5625 -1.078125 1.316406 -1.414062 1.140625 -1.8125 C 0.972656 -2.207031 0.890625 -2.65625 0.890625 -3.15625 C 0.890625 -3.613281 0.976562 -4.035156 1.15625 -4.421875 C 1.34375 -4.816406 1.59375 -5.15625 1.90625 -5.4375 C 2.226562 -5.726562 2.597656 -5.953125 3.015625 -6.109375 C 3.429688 -6.273438 3.867188 -6.359375 4.328125 -6.359375 C 4.710938 -6.359375 5.078125 -6.300781 5.421875 -6.1875 C 5.765625 -6.082031 6.070312 -5.945312 6.34375 -5.78125 C 6.625 -5.625 6.847656 -5.460938 7.015625 -5.296875 L 6.40625 -4.515625 C 6.113281 -4.765625 5.789062 -4.972656 5.4375 -5.140625 C 5.09375 -5.304688 4.707031 -5.390625 4.28125 -5.390625 C 3.96875 -5.390625 3.671875 -5.335938 3.390625 -5.234375 C 3.109375 -5.128906 2.851562 -4.976562 2.625 -4.78125 C 2.394531 -4.59375 2.210938 -4.359375 2.078125 -4.078125 C 1.941406 -3.804688 1.875 -3.5 1.875 -3.15625 C 1.875 -2.644531 1.992188 -2.21875 2.234375 -1.875 C 2.472656 -1.539062 2.785156 -1.285156 3.171875 -1.109375 C 3.554688 -0.941406 3.96875 -0.859375 4.40625 -0.859375 C 4.71875 -0.859375 5 -0.898438 5.25 -0.984375 C 5.507812 -1.066406 5.738281 -1.171875 5.9375 -1.296875 C 6.132812 -1.429688 6.3125 -1.5625 6.46875 -1.6875 Z M 6.9375 -0.875 "/></g></g></g><g fill="#ffffff" fill-opacity="1"><g transform="translate(187.601403, 266.229621)"><g><path d="M 6.71875 -4.34375 C 6.71875 -3.914062 6.585938 -3.53125 6.328125 -3.1875 C 6.066406 -2.851562 5.734375 -2.613281 5.328125 -2.46875 L 7.03125 0.015625 L 5.828125 0 L 4.234375 -2.34375 L 2.34375 -2.34375 L 2.34375 0 L 1.375 0 L 1.375 -6.296875 L 4.6875 -6.296875 C 5.039062 -6.296875 5.367188 -6.210938 5.671875 -6.046875 C 5.984375 -5.878906 6.234375 -5.644531 6.421875 -5.34375 C 6.617188 -5.050781 6.71875 -4.71875 6.71875 -4.34375 Z M 4.453125 -5.359375 L 2.34375 -5.359375 L 2.34375 -3.28125 L 4.546875 -3.28125 C 4.765625 -3.28125 4.957031 -3.328125 5.125 -3.421875 C 5.300781 -3.523438 5.4375 -3.65625 5.53125 -3.8125 C 5.632812 -3.976562 5.6875 -4.15625 5.6875 -4.34375 C 5.6875 -4.539062 5.628906 -4.71875 5.515625 -4.875 C 5.410156 -5.03125 5.257812 -5.148438 5.0625 -5.234375 C 4.875 -5.316406 4.671875 -5.359375 4.453125 -5.359375 Z M 4.453125 -5.359375 "/></g></g></g><g fill="#ffffff" fill-opacity="1"><g transform="translate(195.674454, 266.229621)"><g><path d="M 6.3125 0 L 5.640625 -1.515625 L 2.296875 -1.515625 L 1.625 0 L 0.609375 0 L 3.453125 -6.296875 L 4.546875 -6.296875 L 7.375 0 Z M 3.484375 -4.109375 L 2.734375 -2.453125 L 5.21875 -2.453125 L 4.4375 -4.140625 C 4.351562 -4.328125 4.273438 -4.515625 4.203125 -4.703125 C 4.128906 -4.890625 4.050781 -5.085938 3.96875 -5.296875 C 3.882812 -5.085938 3.800781 -4.882812 3.71875 -4.6875 C 3.644531 -4.488281 3.566406 -4.296875 3.484375 -4.109375 Z M 3.484375 -4.109375 "/></g></g></g><g fill="#ffffff" fill-opacity="1"><g transform="translate(203.657508, 266.229621)"><g><path d="M 1.375 0 L 1.375 -6.296875 L 6.140625 -6.296875 L 6.140625 -5.359375 L 2.34375 -5.359375 L 2.34375 -3.5625 L 5.734375 -3.5625 L 5.734375 -2.625 L 2.34375 -2.625 L 2.34375 0 Z M 1.375 0 "/></g></g></g><g fill="#ffffff" fill-opacity="1"><g transform="translate(210.767562, 266.229621)"><g><path d="M 2.859375 0 L 2.859375 -5.359375 L 0.6875 -5.359375 L 0.6875 -6.296875 L 6.046875 -6.296875 L 6.046875 -5.359375 L 3.828125 -5.359375 L 3.828125 0 Z M 2.859375 0 "/></g></g></g><g fill="#ffffff" fill-opacity="1"><g transform="translate(217.508612, 266.229621)"><g><path d="M 1.53125 -1.921875 C 1.84375 -1.566406 2.171875 -1.285156 2.515625 -1.078125 C 2.867188 -0.878906 3.300781 -0.78125 3.8125 -0.78125 C 4.082031 -0.78125 4.34375 -0.816406 4.59375 -0.890625 C 4.851562 -0.960938 5.0625 -1.066406 5.21875 -1.203125 C 5.382812 -1.347656 5.46875 -1.53125 5.46875 -1.75 C 5.46875 -2.050781 5.300781 -2.265625 4.96875 -2.390625 C 4.644531 -2.515625 4.1875 -2.617188 3.59375 -2.703125 C 2.863281 -2.804688 2.285156 -3 1.859375 -3.28125 C 1.429688 -3.570312 1.21875 -4 1.21875 -4.5625 C 1.21875 -4.9375 1.332031 -5.257812 1.5625 -5.53125 C 1.789062 -5.8125 2.097656 -6.023438 2.484375 -6.171875 C 2.878906 -6.316406 3.3125 -6.390625 3.78125 -6.390625 C 4.375 -6.390625 4.882812 -6.289062 5.3125 -6.09375 C 5.738281 -5.90625 6.078125 -5.632812 6.328125 -5.28125 L 5.65625 -4.578125 C 5.445312 -4.859375 5.179688 -5.082031 4.859375 -5.25 C 4.546875 -5.425781 4.179688 -5.515625 3.765625 -5.515625 C 3.328125 -5.515625 2.960938 -5.4375 2.671875 -5.28125 C 2.378906 -5.132812 2.234375 -4.921875 2.234375 -4.640625 C 2.234375 -4.421875 2.300781 -4.25 2.4375 -4.125 C 2.582031 -4 2.78125 -3.894531 3.03125 -3.8125 C 3.289062 -3.738281 3.59375 -3.679688 3.9375 -3.640625 C 4.269531 -3.585938 4.585938 -3.523438 4.890625 -3.453125 C 5.191406 -3.378906 5.460938 -3.273438 5.703125 -3.140625 C 5.941406 -3.015625 6.128906 -2.851562 6.265625 -2.65625 C 6.410156 -2.457031 6.484375 -2.210938 6.484375 -1.921875 C 6.484375 -1.515625 6.375 -1.160156 6.15625 -0.859375 C 5.9375 -0.554688 5.617188 -0.320312 5.203125 -0.15625 C 4.796875 0.0078125 4.316406 0.09375 3.765625 0.09375 C 3.171875 0.09375 2.632812 0 2.15625 -0.1875 C 1.675781 -0.382812 1.257812 -0.703125 0.90625 -1.140625 Z M 1.53125 -1.921875 "/></g></g></g></svg>